# xmcd CD database file
# Copyright (C) 1993-1998 Ti Kan
# 
# Track frame offsets:
#     182
#     13970
#     27577
#     46160
#     54257
#     69850
#     82462
#     97267
#     118052
#     128485
#     141832
#     156725
#     172957
#     187577
#     198652
# 
# Disc length: 2869 seconds
# 
# Revision: 1
# Processed by: cddbd v1.4b41PL1 Copyright (c) Steve Scherf et al.
# Submitted via: DiscPlay 4.0.4
# 
DISCID=d50b330f
DTITLE=Banjomania - Pick Yourself Up
DYEAR=1900
DGENRE=
TTITLE0=Alabama Jubilee
TTITLE1=Mister Sandman
TTITLE2=Pick Yourself Up
TTITLE3=Hey Good Looking
TTITLE4=Waiting for Robert E. Lee
TTITLE5=Dill Pickle Rag
TTITLE6=Jeepers Creepers
TTITLE7=The Trolley Song
TTITLE8=Yes Sir, That's My Baby
TTITLE9=Carry Me Back To Old Virginny
TTITLE10=After You've Gone
TTITLE11=Swanee
TTITLE12=This Is The Day Of Days
TTITLE13=Clinch Mountain Backstep
TTITLE14=Ring De Banjo
EXTD=
EXTT0=
EXTT1=
EXTT2=
EXTT3=
EXTT4=
EXTT5=
EXTT6=
EXTT7=
EXTT8=
EXTT9=
EXTT10=
EXTT11=
EXTT12=
EXTT13=
EXTT14=
PLAYORDER=
